<mxfile host="app.diagrams.net" modified="2021-03-23T06:53:34.759Z" agent="5.0 (Windows NT 10.0; Win64; x64) AppleWebKit/537.36 (KHTML, like Gecko) Chrome/89.0.4389.90 Safari/537.36" etag="Dy1ep7XzJjXhNzDCxobx" version="14.5.0" type="github">
  <diagram id="RJZobhO46xZ5FbXFD57Y" name="Page-1">
    <mxGraphModel dx="1038" dy="580" grid="1" gridSize="10" guides="1" tooltips="1" connect="1" arrows="1" fold="1" page="1" pageScale="1" pageWidth="827" pageHeight="1169" math="0" shadow="0">
      <root>
        <mxCell id="0" />
        <mxCell id="1" parent="0" />
        <mxCell id="-6srFhQsNPPZt6NhztcN-3" value="Start" style="rounded=1;whiteSpace=wrap;html=1;" parent="1" vertex="1">
          <mxGeometry x="360" y="80" width="80" height="40" as="geometry" />
        </mxCell>
        <mxCell id="-6srFhQsNPPZt6NhztcN-8" style="edgeStyle=orthogonalEdgeStyle;rounded=0;orthogonalLoop=1;jettySize=auto;html=1;exitX=0.5;exitY=1;exitDx=0;exitDy=0;entryX=0.5;entryY=0;entryDx=0;entryDy=0;" parent="1" source="-6srFhQsNPPZt6NhztcN-4" target="-6srFhQsNPPZt6NhztcN-7" edge="1">
          <mxGeometry relative="1" as="geometry" />
        </mxCell>
        <mxCell id="-6srFhQsNPPZt6NhztcN-4" value="L1Access: addr, PC" style="rounded=0;whiteSpace=wrap;html=1;" parent="1" vertex="1">
          <mxGeometry x="340" y="160" width="120" height="40" as="geometry" />
        </mxCell>
        <mxCell id="-6srFhQsNPPZt6NhztcN-6" value="" style="endArrow=classic;html=1;exitX=0.5;exitY=1;exitDx=0;exitDy=0;entryX=0.5;entryY=0;entryDx=0;entryDy=0;" parent="1" source="-6srFhQsNPPZt6NhztcN-3" target="-6srFhQsNPPZt6NhztcN-4" edge="1">
          <mxGeometry width="50" height="50" relative="1" as="geometry">
            <mxPoint x="390" y="320" as="sourcePoint" />
            <mxPoint x="440" y="270" as="targetPoint" />
          </mxGeometry>
        </mxCell>
        <mxCell id="-6srFhQsNPPZt6NhztcN-10" value="Yes" style="edgeStyle=orthogonalEdgeStyle;rounded=0;orthogonalLoop=1;jettySize=auto;html=1;entryX=0.5;entryY=0;entryDx=0;entryDy=0;exitX=0;exitY=0.5;exitDx=0;exitDy=0;" parent="1" source="-6srFhQsNPPZt6NhztcN-7" target="-6srFhQsNPPZt6NhztcN-9" edge="1">
          <mxGeometry relative="1" as="geometry">
            <mxPoint x="330" y="245" as="sourcePoint" />
            <Array as="points">
              <mxPoint x="120" y="255" />
            </Array>
          </mxGeometry>
        </mxCell>
        <mxCell id="-6srFhQsNPPZt6NhztcN-43" value="No" style="edgeStyle=orthogonalEdgeStyle;rounded=0;orthogonalLoop=1;jettySize=auto;html=1;exitX=0.5;exitY=1;exitDx=0;exitDy=0;entryX=0.5;entryY=0;entryDx=0;entryDy=0;" parent="1" source="-6srFhQsNPPZt6NhztcN-7" target="-6srFhQsNPPZt6NhztcN-19" edge="1">
          <mxGeometry relative="1" as="geometry" />
        </mxCell>
        <mxCell id="-6srFhQsNPPZt6NhztcN-7" value="Hit in L1Cache?" style="rhombus;whiteSpace=wrap;html=1;" parent="1" vertex="1">
          <mxGeometry x="340" y="230" width="120" height="50" as="geometry" />
        </mxCell>
        <mxCell id="-6srFhQsNPPZt6NhztcN-18" style="edgeStyle=orthogonalEdgeStyle;rounded=0;orthogonalLoop=1;jettySize=auto;html=1;exitX=0.5;exitY=1;exitDx=0;exitDy=0;entryX=0;entryY=0.5;entryDx=0;entryDy=0;" parent="1" source="-6srFhQsNPPZt6NhztcN-9" target="-6srFhQsNPPZt6NhztcN-13" edge="1">
          <mxGeometry relative="1" as="geometry" />
        </mxCell>
        <mxCell id="-6srFhQsNPPZt6NhztcN-9" value="&lt;table class=&quot;NormalTable&quot;&gt;&lt;tbody&gt;&lt;tr&gt;&lt;td width=&quot;375&quot;&gt;&lt;span class=&quot;fontstyle0&quot;&gt;&lt;br&gt;predictionTable [ block[addr].hashedPC ]--;&lt;br&gt;&lt;span class=&quot;fontstyle0&quot;&gt;block [addr].hashedPC = hash (PC);&lt;/span&gt;&lt;br&gt;&lt;br style=&quot;line-height: normal&quot;&gt;&lt;/span&gt;&lt;/td&gt;&lt;/tr&gt;&lt;/tbody&gt;&lt;/table&gt; " style="rounded=0;whiteSpace=wrap;html=1;" parent="1" vertex="1">
          <mxGeometry y="440" width="240" height="60" as="geometry" />
        </mxCell>
        <mxCell id="-6srFhQsNPPZt6NhztcN-13" value="End" style="rounded=1;whiteSpace=wrap;html=1;" parent="1" vertex="1">
          <mxGeometry x="360" y="790" width="80" height="40" as="geometry" />
        </mxCell>
        <mxCell id="-6srFhQsNPPZt6NhztcN-23" style="edgeStyle=orthogonalEdgeStyle;rounded=0;orthogonalLoop=1;jettySize=auto;html=1;exitX=0.5;exitY=1;exitDx=0;exitDy=0;entryX=0.5;entryY=0;entryDx=0;entryDy=0;" parent="1" source="-6srFhQsNPPZt6NhztcN-19" target="-6srFhQsNPPZt6NhztcN-21" edge="1">
          <mxGeometry relative="1" as="geometry" />
        </mxCell>
        <mxCell id="-6srFhQsNPPZt6NhztcN-19" value="Get bypass prediction:&amp;nbsp;&lt;br&gt;&lt;table class=&quot;NormalTable&quot;&gt;&lt;tbody&gt;&lt;tr&gt;&lt;td width=&quot;370&quot;&gt;&lt;span class=&quot;fontstyle0&quot;&gt;isBypassed = predictionTable [ hash (PC)]&lt;/span&gt;&lt;/td&gt;&lt;/tr&gt;&lt;tr&gt;&lt;td width=&quot;342&quot;&gt;&lt;span class=&quot;fontstyle0&quot;&gt;&amp;gt;= threshold ? true : false&lt;/span&gt;&lt;/td&gt;&lt;/tr&gt;&lt;/tbody&gt;&lt;/table&gt; " style="rounded=0;whiteSpace=wrap;html=1;" parent="1" vertex="1">
          <mxGeometry x="280" y="320" width="240" height="50" as="geometry" />
        </mxCell>
        <mxCell id="-6srFhQsNPPZt6NhztcN-26" style="edgeStyle=orthogonalEdgeStyle;rounded=0;orthogonalLoop=1;jettySize=auto;html=1;exitX=0.5;exitY=1;exitDx=0;exitDy=0;entryX=0.5;entryY=0;entryDx=0;entryDy=0;" parent="1" source="-6srFhQsNPPZt6NhztcN-21" target="-6srFhQsNPPZt6NhztcN-25" edge="1">
          <mxGeometry relative="1" as="geometry" />
        </mxCell>
        <mxCell id="-6srFhQsNPPZt6NhztcN-21" value="Send memory request to L2, along with the prediction&lt;br&gt;&lt;table class=&quot;NormalTable&quot;&gt;&lt;tbody&gt;&lt;tr&gt;&lt;td width=&quot;370&quot;&gt;&lt;/td&gt;&lt;/tr&gt;&lt;tr&gt;&lt;td width=&quot;342&quot;&gt;&lt;/td&gt;&lt;/tr&gt;&lt;/tbody&gt;&lt;/table&gt; " style="rounded=0;whiteSpace=wrap;html=1;" parent="1" vertex="1">
          <mxGeometry x="315" y="400" width="170" height="40" as="geometry" />
        </mxCell>
        <mxCell id="-6srFhQsNPPZt6NhztcN-29" style="edgeStyle=orthogonalEdgeStyle;rounded=0;orthogonalLoop=1;jettySize=auto;html=1;exitX=1;exitY=0.5;exitDx=0;exitDy=0;entryX=0.5;entryY=0;entryDx=0;entryDy=0;" parent="1" source="-6srFhQsNPPZt6NhztcN-25" target="-6srFhQsNPPZt6NhztcN-27" edge="1">
          <mxGeometry relative="1" as="geometry" />
        </mxCell>
        <mxCell id="-6srFhQsNPPZt6NhztcN-30" value="No" style="edgeLabel;html=1;align=center;verticalAlign=middle;resizable=0;points=[];" parent="-6srFhQsNPPZt6NhztcN-29" vertex="1" connectable="0">
          <mxGeometry x="-0.1061" relative="1" as="geometry">
            <mxPoint as="offset" />
          </mxGeometry>
        </mxCell>
        <mxCell id="-6srFhQsNPPZt6NhztcN-32" value="Yes" style="edgeStyle=orthogonalEdgeStyle;rounded=0;orthogonalLoop=1;jettySize=auto;html=1;exitX=0.5;exitY=1;exitDx=0;exitDy=0;entryX=0.5;entryY=0;entryDx=0;entryDy=0;" parent="1" source="-6srFhQsNPPZt6NhztcN-25" target="-6srFhQsNPPZt6NhztcN-31" edge="1">
          <mxGeometry relative="1" as="geometry">
            <Array as="points">
              <mxPoint x="400" y="550" />
              <mxPoint x="400" y="550" />
            </Array>
          </mxGeometry>
        </mxCell>
        <mxCell id="-6srFhQsNPPZt6NhztcN-25" value="Is bypassed?" style="rhombus;whiteSpace=wrap;html=1;" parent="1" vertex="1">
          <mxGeometry x="340" y="470" width="120" height="50" as="geometry" />
        </mxCell>
        <mxCell id="-6srFhQsNPPZt6NhztcN-44" style="edgeStyle=orthogonalEdgeStyle;rounded=0;orthogonalLoop=1;jettySize=auto;html=1;exitX=0.5;exitY=1;exitDx=0;exitDy=0;" parent="1" source="-6srFhQsNPPZt6NhztcN-27" target="-6srFhQsNPPZt6NhztcN-13" edge="1">
          <mxGeometry relative="1" as="geometry">
            <mxPoint x="570" y="810" as="targetPoint" />
            <Array as="points">
              <mxPoint x="645" y="810" />
            </Array>
          </mxGeometry>
        </mxCell>
        <mxCell id="-6srFhQsNPPZt6NhztcN-27" value="&lt;span class=&quot;fontstyle0&quot;&gt;VictimAddr has to be replaced:&lt;br&gt;predictionTable [ block [VictimAddr].hashedPC ]++&lt;/span&gt; &lt;br&gt;data is sent to L1Cache&lt;br style=&quot;line-height: normal&quot;&gt; " style="rounded=0;whiteSpace=wrap;html=1;" parent="1" vertex="1">
          <mxGeometry x="510" y="550" width="270" height="60" as="geometry" />
        </mxCell>
        <mxCell id="-6srFhQsNPPZt6NhztcN-35" style="edgeStyle=orthogonalEdgeStyle;rounded=0;orthogonalLoop=1;jettySize=auto;html=1;exitX=0.5;exitY=1;exitDx=0;exitDy=0;" parent="1" source="-6srFhQsNPPZt6NhztcN-31" target="-6srFhQsNPPZt6NhztcN-33" edge="1">
          <mxGeometry relative="1" as="geometry" />
        </mxCell>
        <mxCell id="-6srFhQsNPPZt6NhztcN-31" value="get&amp;nbsp;L2Block [address].bypassBit&amp;nbsp;&lt;br&gt;&lt;table class=&quot;NormalTable&quot;&gt;&lt;tbody&gt;&lt;tr&gt;&lt;td width=&quot;370&quot;&gt;&lt;/td&gt;&lt;/tr&gt;&lt;tr&gt;&lt;td width=&quot;342&quot;&gt;&lt;/td&gt;&lt;/tr&gt;&lt;/tbody&gt;&lt;/table&gt; " style="rounded=0;whiteSpace=wrap;html=1;" parent="1" vertex="1">
          <mxGeometry x="310" y="560" width="180" height="40" as="geometry" />
        </mxCell>
        <mxCell id="-6srFhQsNPPZt6NhztcN-37" value="Yes" style="edgeStyle=orthogonalEdgeStyle;rounded=0;orthogonalLoop=1;jettySize=auto;html=1;exitX=0.5;exitY=1;exitDx=0;exitDy=0;entryX=0.5;entryY=0;entryDx=0;entryDy=0;" parent="1" source="-6srFhQsNPPZt6NhztcN-33" target="-6srFhQsNPPZt6NhztcN-36" edge="1">
          <mxGeometry relative="1" as="geometry" />
        </mxCell>
        <mxCell id="-6srFhQsNPPZt6NhztcN-45" style="edgeStyle=orthogonalEdgeStyle;rounded=0;orthogonalLoop=1;jettySize=auto;html=1;exitX=0;exitY=0.5;exitDx=0;exitDy=0;entryX=0.5;entryY=0;entryDx=0;entryDy=0;" parent="1" source="-6srFhQsNPPZt6NhztcN-33" target="-6srFhQsNPPZt6NhztcN-39" edge="1">
          <mxGeometry relative="1" as="geometry" />
        </mxCell>
        <mxCell id="-6srFhQsNPPZt6NhztcN-47" value="No" style="edgeLabel;html=1;align=center;verticalAlign=middle;resizable=0;points=[];" parent="-6srFhQsNPPZt6NhztcN-45" vertex="1" connectable="0">
          <mxGeometry x="-0.1746" y="-1" relative="1" as="geometry">
            <mxPoint as="offset" />
          </mxGeometry>
        </mxCell>
        <mxCell id="-6srFhQsNPPZt6NhztcN-33" value="bypassBit indicates misprediction?" style="rhombus;whiteSpace=wrap;html=1;" parent="1" vertex="1">
          <mxGeometry x="310" y="640" width="180" height="60" as="geometry" />
        </mxCell>
        <mxCell id="-6srFhQsNPPZt6NhztcN-38" style="edgeStyle=orthogonalEdgeStyle;rounded=0;orthogonalLoop=1;jettySize=auto;html=1;exitX=0.5;exitY=1;exitDx=0;exitDy=0;entryX=0.5;entryY=0;entryDx=0;entryDy=0;" parent="1" source="-6srFhQsNPPZt6NhztcN-36" target="-6srFhQsNPPZt6NhztcN-13" edge="1">
          <mxGeometry relative="1" as="geometry" />
        </mxCell>
        <mxCell id="-6srFhQsNPPZt6NhztcN-36" value="send the block to L1Cache&lt;br&gt;&lt;table class=&quot;NormalTable&quot;&gt;&lt;tbody&gt;&lt;tr&gt;&lt;td width=&quot;370&quot;&gt;&lt;/td&gt;&lt;/tr&gt;&lt;tr&gt;&lt;td width=&quot;342&quot;&gt;&lt;/td&gt;&lt;/tr&gt;&lt;/tbody&gt;&lt;/table&gt; " style="rounded=0;whiteSpace=wrap;html=1;" parent="1" vertex="1">
          <mxGeometry x="310" y="730" width="180" height="40" as="geometry" />
        </mxCell>
        <mxCell id="-6srFhQsNPPZt6NhztcN-46" style="edgeStyle=orthogonalEdgeStyle;rounded=0;orthogonalLoop=1;jettySize=auto;html=1;exitX=0.5;exitY=1;exitDx=0;exitDy=0;" parent="1" source="-6srFhQsNPPZt6NhztcN-39" edge="1">
          <mxGeometry relative="1" as="geometry">
            <mxPoint x="220" y="810" as="targetPoint" />
          </mxGeometry>
        </mxCell>
        <mxCell id="-6srFhQsNPPZt6NhztcN-39" value="&lt;span class=&quot;fontstyle0&quot;&gt;&lt;br&gt;bypass L1 cache&lt;/span&gt; &lt;br&gt;&lt;br style=&quot;line-height: normal&quot;&gt;&lt;table class=&quot;NormalTable&quot;&gt;&lt;tbody&gt;&lt;tr&gt;&lt;td width=&quot;370&quot;&gt;&lt;/td&gt;&lt;/tr&gt;&lt;tr&gt;&lt;td width=&quot;342&quot;&gt;&lt;/td&gt;&lt;/tr&gt;&lt;/tbody&gt;&lt;/table&gt; " style="rounded=0;whiteSpace=wrap;html=1;" parent="1" vertex="1">
          <mxGeometry x="160" y="730" width="120" height="40" as="geometry" />
        </mxCell>
      </root>
    </mxGraphModel>
  </diagram>
</mxfile>
